# xmcd
# 
# Track frame offsets:
#     151
#     2483
#     33793
#     74813
#     113080
#     150192
#     160787
#     190991
#     218203
#     270278
#     311875
#     333848
# 
# Disc length: 4523
# 
# Revision: 1
# Processed by: cddbd v1.5.2PL0 Copyright (c) Steve Scherf et al.
# Submitted via: BonkEnc v1.0.8
# 
DISCID=9611a90c
DTITLE=Miles Davis - Winter In Europe 1967
DYEAR=1967
DGENRE=Jazz
TTITLE0=Introduction
TTITLE1=Agitation 
TTITLE2=Footprints 
TTITLE3=Around Midnight
TTITLE4=Gingerbread Boy Into The Theme 
TTITLE5=Introduction 
TTITLE6=Agitation 
TTITLE7=Footprints 
TTITLE8=I Fall I Love Too Easily 
TTITLE9=Walkin' 
TTITLE10=Gingerbread Boy 
TTITLE11=The Theme 
EXTD=YEAR: 1967
EXTT0=
EXTT1=
EXTT2=
EXTT3=
EXTT4=
EXTT5=
EXTT6=
EXTT7=
EXTT8=
EXTT9=
EXTT10=
EXTT11=
PLAYORDER=
